<svg width="411" height="33" viewBox="0 0 411 33" fill="none" xmlns="http://www.w3.org/2000/svg">
<path d="M156 16.5679C156 7.51761 163.337 0.180908 172.387 0.180908H253.276V32.9549H172.387C163.337 32.9549 156 25.6182 156 16.5679V16.5679Z" fill="#6BB238"/>
<path d="M253.352 0H394.427C403.539 0 410.927 7.3873 410.927 16.5V16.5C410.927 25.6127 403.539 33 394.427 33H253.352V0Z" fill="black"/>
<path d="M200.051 10.6416V24.588H196.203V16.8927L193.591 24.588H190.371L187.74 16.8334V24.588H183.892V10.6416H188.545L192.021 19.7018L195.417 10.6416H200.051Z" fill="white"/>
<path d="M210.213 22.313H205.304L204.558 24.588H200.514L205.56 10.6416H209.997L215.023 24.588H210.959L210.213 22.313ZM209.251 19.3457L207.759 14.8354L206.286 19.3457H209.251Z" fill="white"/>
<path d="M226.429 15.2904C226.429 16.1344 226.232 16.9059 225.839 17.6049C225.46 18.2907 224.877 18.8446 224.092 19.2666C223.32 19.6754 222.371 19.8798 221.245 19.8798H219.341V24.588H215.492V10.6416H221.245C222.358 10.6416 223.3 10.8394 224.072 11.2351C224.858 11.6307 225.447 12.178 225.839 12.877C226.232 13.5759 226.429 14.3804 226.429 15.2904ZM220.872 16.7938C221.958 16.7938 222.502 16.2927 222.502 15.2904C222.502 14.2749 221.958 13.7672 220.872 13.7672H219.341V16.7938H220.872Z" fill="white"/>
<path d="M304.676 11.0126V24.8887H300.803V17.2322L298.175 24.8887H294.934L292.286 17.1732V24.8887H288.413V11.0126H293.096L296.594 20.0271L300.013 11.0126H304.676Z" fill="white"/>
<path d="M309.964 14.1027V16.3662H314.41V19.2989H309.964V21.7985H315.002V24.8887H306.09V11.0126H315.002V14.1027H309.964Z" fill="white"/>
<path d="M321.639 11.0126C323.101 11.0126 324.379 11.3078 325.473 11.8983C326.579 12.4757 327.429 13.2892 328.022 14.3389C328.615 15.3887 328.911 16.5893 328.911 17.9408C328.911 19.2792 328.608 20.4733 328.002 21.523C327.409 22.5727 326.56 23.3994 325.453 24.003C324.36 24.5934 323.088 24.8887 321.639 24.8887H316.126V11.0126H321.639ZM321.343 21.4836C322.476 21.4836 323.365 21.1753 324.01 20.5586C324.656 19.9418 324.979 19.0693 324.979 17.9408C324.979 16.7992 324.656 15.9201 324.01 15.3034C323.365 14.6735 322.476 14.3586 321.343 14.3586H319.999V21.4836H321.343Z" fill="white"/>
<path d="M333.74 14.1027V16.3662H338.186V19.2989H333.74V21.7985H338.779V24.8887H329.867V11.0126H338.779V14.1027H333.74Z" fill="white"/>
<path d="M343.775 21.9363H348.103V24.8887H339.902V11.0126H343.775V21.9363Z" fill="white"/>
<path d="M352.691 21.9363H357.019V24.8887H348.818V11.0126H352.691V21.9363Z" fill="white"/>
<path d="M361.608 11.0126V24.8887H357.735V11.0126H361.608ZM362.102 8.27676L357.161 10.2056V7.58788L362.102 5.36377V8.27676Z" fill="white"/>
<path d="M375.927 24.8887H372.053L366.896 17.1338V24.8887H363.023V11.0126H366.896L372.053 18.8659V11.0126H375.927V24.8887Z" fill="white"/>
<path d="M42.0676 2.41899C42.3787 2.41899 42.6142 2.69999 42.5599 3.00628L37.3684 32.2865C37.3261 32.5253 37.1185 32.6992 36.8761 32.6992H29.5161C29.2051 32.6992 28.9695 32.4184 29.0237 32.1121L31.3163 19.154C31.416 18.5906 30.6446 18.3285 30.3804 18.836L23.3045 32.4301C23.2184 32.5955 23.0475 32.6992 22.861 32.6992H16.5455C16.3005 32.6992 16.0915 32.5217 16.052 32.2798L13.8466 18.7715C13.7559 18.2158 12.9583 18.2109 12.8607 18.7654L10.4808 32.2859C10.4387 32.525 10.2311 32.6992 9.98839 32.6992H2.54323C2.23216 32.6992 1.9966 32.4182 2.05091 32.112L7.24244 2.8317C7.28477 2.59295 7.4923 2.41899 7.73476 2.41899H17.0899C17.3261 2.41899 17.53 2.58419 17.579 2.81518L21.3831 20.7377C21.4792 21.1903 22.0856 21.2808 22.3097 20.876L32.385 2.67682C32.473 2.51772 32.6405 2.41899 32.8224 2.41899H42.0676Z" fill="#6BB238"/>
<path d="M52.4424 9.07635C52.1987 9.07635 51.9906 9.25195 51.9495 9.4921L51.2614 13.5173C51.2092 13.8227 51.4445 14.1016 51.7543 14.1016H60.2267C60.5385 14.1016 60.7743 14.3839 60.7187 14.6907L59.7402 20.0904C59.6971 20.3283 59.49 20.5012 59.2483 20.5012H50.4201C50.178 20.5012 49.9707 20.6746 49.9279 20.9128L49.1198 25.4105C49.0647 25.7171 49.3003 25.9989 49.6119 25.9989H59.3725C59.6827 25.9989 59.9181 26.2785 59.8652 26.5842L58.8786 32.2845C58.8371 32.5242 58.6291 32.6992 58.3859 32.6992H39.9895C39.6784 32.6992 39.4429 32.4182 39.4972 32.112L44.6887 2.8317C44.7311 2.59295 44.9386 2.41899 45.181 2.41899H63.538C63.8485 2.41899 64.0839 2.69895 64.0306 3.0048L63.0451 8.66216C63.0034 8.90159 62.7956 9.07635 62.5526 9.07635H52.4424Z" fill="#6BB238"/>
<path d="M89.7597 2.41899C90.0712 2.41899 90.3069 2.70073 90.2519 3.00732L89.2287 8.70764C89.186 8.9459 88.9787 9.1193 88.7366 9.1193H81.5425C81.2999 9.1193 81.0923 9.29343 81.0501 9.53231L77.0298 32.2862C76.9876 32.5251 76.78 32.6992 76.5374 32.6992H69.0916C68.7807 32.6992 68.5452 32.4185 68.5993 32.1123L72.5581 9.7063C72.6122 9.4001 72.3766 9.1193 72.0657 9.1193H65.2707C64.9592 9.1193 64.7235 8.83756 64.7785 8.53097L65.8017 2.83066C65.8444 2.5924 66.0517 2.41899 66.2938 2.41899H89.7597Z" fill="#6BB238"/>
<path d="M105.612 2.41899C108.79 2.41899 111.209 3.13484 112.87 4.56653C114.531 5.96958 115.361 7.8451 115.361 10.1931C115.361 10.9089 115.304 11.5532 115.19 12.1259C114.846 14.1875 113.973 16.0057 112.57 17.5806C111.275 19.007 109.591 20.0557 107.517 20.7267C107.235 20.818 107.082 21.1275 107.192 21.4029L111.436 32.0136C111.568 32.342 111.326 32.6992 110.972 32.6992H102.698C102.488 32.6992 102.3 32.5673 102.228 32.3692L98.4292 21.8621C98.3576 21.664 98.1696 21.5321 97.959 21.5321H97.8272C97.5847 21.5321 97.3771 21.7061 97.3349 21.945L95.5052 32.2864C95.463 32.5252 95.2554 32.6992 95.0129 32.6992H87.5673C87.2563 32.6992 87.0207 32.4182 87.075 32.112L92.2666 2.8317C92.3089 2.59295 92.5164 2.41899 92.7589 2.41899H105.612ZM98.5373 15.1934C98.4857 15.4985 98.7209 15.7767 99.0303 15.7767H102.605C104.838 15.7767 106.156 14.7172 106.556 12.5983C106.614 12.2547 106.642 12.0113 106.642 11.8682C106.642 11.095 106.385 10.4937 105.869 10.0642C105.382 9.63471 104.652 9.41996 103.679 9.41996H99.9351C99.6911 9.41996 99.4828 9.59608 99.4421 9.83668L98.5373 15.1934Z" fill="#6BB238"/>
<path d="M128.49 32.9999C125.942 32.9999 123.694 32.4702 121.747 31.4107C119.8 30.3513 118.297 28.8623 117.237 26.9439C116.178 25.0254 115.648 22.8206 115.648 20.3294C115.648 16.7502 116.393 13.5719 117.882 10.7944C119.399 7.98827 121.504 5.8121 124.195 4.26587C126.916 2.71965 130.022 1.94653 133.516 1.94653C136.121 1.94653 138.398 2.47626 140.345 3.53571C142.321 4.56653 143.838 6.04117 144.898 7.95963C145.957 9.84946 146.487 12.04 146.487 14.5311C146.487 18.0817 145.728 21.26 144.21 24.0662C142.693 26.8723 140.574 29.0628 137.854 30.6376C135.133 32.2125 132.012 32.9999 128.49 32.9999ZM129.779 25.1829C131.468 25.1829 132.943 24.739 134.203 23.8514C135.491 22.9638 136.465 21.7898 137.124 20.3294C137.811 18.8405 138.154 17.237 138.154 15.519C138.154 13.6864 137.653 12.269 136.651 11.2668C135.678 10.236 134.274 9.72061 132.442 9.72061C130.752 9.72061 129.264 10.1644 127.975 11.0521C126.686 11.9111 125.699 13.0708 125.011 14.5311C124.324 15.9914 123.981 17.5949 123.981 19.3416C123.981 21.1455 124.482 22.5772 125.484 23.6366C126.486 24.6675 127.918 25.1829 129.779 25.1829Z" fill="#6BB238"/>
<path d="M40.1208 0.472458C40.4319 0.472458 40.6675 0.753461 40.6132 1.05975L35.4216 30.34C35.3793 30.5788 35.1718 30.7527 34.9293 30.7527H27.5693C27.2583 30.7527 27.0227 30.4718 27.0769 30.1656L29.3695 17.2074C29.4692 16.6441 28.6978 16.382 28.4337 16.8895L21.3577 30.4836C21.2717 30.649 21.1007 30.7527 20.9142 30.7527H14.5987C14.3537 30.7527 14.1447 30.5751 14.1053 30.3333L11.8998 16.825C11.8091 16.2693 11.0115 16.2643 10.9139 16.8189L8.53405 30.3394C8.49197 30.5784 8.28432 30.7527 8.04162 30.7527H0.59645C0.285386 30.7527 0.0498234 30.4717 0.10413 30.1654L5.29566 0.885166C5.338 0.646422 5.54552 0.472458 5.78799 0.472458H15.1431C15.3793 0.472458 15.5832 0.637656 15.6323 0.868643L19.4364 18.7911C19.5324 19.2437 20.1388 19.3343 20.3629 18.9295L30.4382 0.730286C30.5263 0.57119 30.6938 0.472458 30.8756 0.472458H40.1208Z" fill="black"/>
<path d="M50.4956 7.12982C50.2519 7.12982 50.0438 7.30542 50.0027 7.54557L49.3146 11.5708C49.2624 11.8762 49.4977 12.1551 49.8075 12.1551H58.2799C58.5918 12.1551 58.8275 12.4374 58.7719 12.7442L57.7935 18.1439C57.7504 18.3817 57.5432 18.5547 57.3015 18.5547H48.4733C48.2312 18.5547 48.024 18.7281 47.9812 18.9663L47.173 23.464C47.1179 23.7706 47.3536 24.0524 47.6651 24.0524H57.4257C57.7359 24.0524 57.9713 24.332 57.9184 24.6377L56.9318 30.338C56.8903 30.5777 56.6824 30.7527 56.4391 30.7527H38.0427C37.7317 30.7527 37.4961 30.4717 37.5504 30.1654L42.7419 0.885166C42.7843 0.646422 42.9918 0.472458 43.2343 0.472458H61.5913C61.9017 0.472458 62.1371 0.752416 62.0839 1.05826L61.0984 6.71563C61.0567 6.95506 60.8488 7.12982 60.6058 7.12982H50.4956Z" fill="black"/>
<path d="M87.813 0.472458C88.1245 0.472458 88.3601 0.754196 88.3051 1.06079L87.282 6.7611C87.2392 6.99936 87.0319 7.17277 86.7898 7.17277H79.5957C79.3531 7.17277 79.1455 7.34689 79.1033 7.58577L75.083 30.3397C75.0408 30.5786 74.8332 30.7527 74.5907 30.7527H67.1449C66.8339 30.7527 66.5984 30.4719 66.6525 30.1657L70.6113 7.75976C70.6654 7.45356 70.4299 7.17277 70.1189 7.17277H63.3239C63.0124 7.17277 62.7767 6.89103 62.8318 6.58444L63.8549 0.884126C63.8977 0.645864 64.105 0.472458 64.347 0.472458H87.813Z" fill="black"/>
<path d="M103.665 0.472458C106.843 0.472458 109.263 1.1883 110.923 2.61999C112.584 4.02305 113.415 5.89856 113.415 8.24654C113.415 8.96238 113.357 9.60664 113.243 10.1793C112.899 12.241 112.026 14.0592 110.623 15.6341C109.328 17.0604 107.644 18.1091 105.57 18.7801C105.288 18.8714 105.135 19.181 105.245 19.4564L109.489 30.067C109.621 30.3955 109.379 30.7527 109.025 30.7527H100.751C100.541 30.7527 100.353 30.6208 100.281 30.4227L96.4824 19.9155C96.4108 19.7175 96.2228 19.5855 96.0122 19.5855H95.8804C95.6379 19.5855 95.4303 19.7596 95.3881 19.9984L93.5585 30.3398C93.5162 30.5787 93.3086 30.7527 93.0661 30.7527H85.6206C85.3095 30.7527 85.0739 30.4717 85.1283 30.1654L90.3198 0.885166C90.3621 0.646422 90.5696 0.472458 90.8121 0.472458H103.665ZM96.5905 13.2469C96.539 13.5519 96.7741 13.8301 97.0835 13.8301H100.658C102.892 13.8301 104.209 12.7707 104.61 10.6518C104.667 10.3082 104.696 10.0648 104.696 9.92162C104.696 9.1485 104.438 8.54719 103.922 8.11769C103.436 7.68818 102.706 7.47342 101.732 7.47342H97.9883C97.7443 7.47342 97.536 7.64955 97.4953 7.89014L96.5905 13.2469Z" fill="black"/>
<path d="M126.544 31.0534C123.995 31.0534 121.747 30.5236 119.8 29.4642C117.853 28.4047 116.35 26.9158 115.291 24.9973C114.231 23.0789 113.701 20.8741 113.701 18.3829C113.701 14.8037 114.446 11.6253 115.935 8.84785C117.452 6.04173 119.557 3.86556 122.249 2.31934C124.969 0.773112 128.076 0 131.569 0C134.175 0 136.451 0.529725 138.398 1.58918C140.374 2.61999 141.891 4.09464 142.951 6.0131C144.01 7.90293 144.54 10.0934 144.54 12.5846C144.54 16.1352 143.781 19.3135 142.264 22.1196C140.746 24.9257 138.627 27.1162 135.907 28.6911C133.187 30.2659 130.066 31.0534 126.544 31.0534ZM127.832 23.2363C129.522 23.2363 130.996 22.7925 132.256 21.9049C133.545 21.0172 134.518 19.8432 135.177 18.3829C135.864 16.894 136.208 15.2905 136.208 13.5724C136.208 11.7399 135.706 10.3225 134.704 9.32031C133.731 8.28949 132.328 7.77408 130.495 7.77408C128.806 7.77408 127.317 8.2179 126.028 9.10555C124.74 9.96457 123.752 11.1242 123.065 12.5846C122.377 14.0449 122.034 15.6484 122.034 17.395C122.034 19.199 122.535 20.6307 123.537 21.6901C124.539 22.7209 125.971 23.2363 127.832 23.2363Z" fill="black"/>
</svg>
